<svg version="1" xmlns="http://www.w3.org/2000/svg" width="800" height="800" viewBox="0 0 600.000000 600.000000"><path d="M363.9 103.7c-1.2 1.6-1.2 1.7.2.6.9-.7 2-.9 2.4-.5.5.4.5.1.1-.6-.9-1.6-1.1-1.5-2.7.5z"/><path d="M503.3 102.7c1 1.6-4.4 2.6-10.2 1.8-4.1-.6-5.1-.4-6 1.2-1 1.7-1 1.7-1.1 0 0-1.5-.3-1.6-2.2-.5-2.5 1.3-8.1 1.1-8.6-.3-.5-1.3-3.9-1.1-4.8.2-.5.8-.8.8-1.4 0-.7-1.2-4-.5-4 .9 0 .4-1.7.4-3.7-.2-8-2-8.3-2-8.3-.8 0 .9-.3 1-1.3.1-1-.8-1.8-.7-3.2.2-1.3 1-3.2 1.1-7.4.5-4.8-.8-5.7-.7-6.8.8-1.2 1.6-1.3 1.7-1.3.1 0-1.8-1.5-2.3-2.4-.9-.3.5-3.1.5-6.3.1-3.7-.5-6.2-.4-7 .3-.9.7-1.7.7-2.6-.1-.9-.6-1.7-.7-2.3-.1-.6.6-3 .6-6.2.1-4-.6-5.5-.5-6.3.6-.8.9-1.6 1-2.3.4-.7-.6-2.1-1-3.1-1-1.1 0-4.3-.1-7.2-.3-3.7-.3-5.4 0-5.7.9-.5 1.1-.9 1.1-2.6.1-1.7-1.1-2.2-1-3 .2-.5.8-1 1-1 .4 0-1.3-8.8-2.5-10.5-1.5-.5.3-4.8.4-9.4.2-6.2-.2-8.6 0-9.3 1-.7 1.1-1.1 1.1-1.5.1-.6-1.6-16-1.7-16.5-.1-.3.9-.9.9-2.5 0-2.7-1.4-14-1.5-14.8-.1-.5.7-1.1.8-1.9.1-1.3-1.1-50.7-.8-52.6.4-.6.4-2.3.2-3.6-.5-1.8-1-3.8-1.1-9-.2-3.7.6-7.2.8-7.8.5-1.5-1-14.9-.4-16 .7-.5.5-1.5.2-2.4-.7-1.2-1.2-2.8-1.4-7.1-.9-3.1.4-21.8.6-41.5.7-23.7 0-36.4.3-37.2 1-.8.6-1.9.7-2.6.2-1.7-1.1-34.8-1.2-34.8-.1 0 .5-.5.6-1 .3-.6-.3-2.3.3-4 1.5-2.1 1.5-4.2 2-7.2 1.9-2.4-.1-5.8.1-7.6.5-3 .7-3.3 1.1-3.1 4 .3 3.2-.7 6-1.9 5.2-.4-.2-.8 1.2-1 3.2-.2 2.1-.7 8-1.2 13.2-.5 5.2-1.1 13.5-1.4 18.5-.9 14.9-2.7 35.9-3.3 37.5-.4.8-.5 2.1-.4 2.9.1.7-.2 1-.8.6-.6-.3-1.1-.2-1.1.4 0 .5.4 1.3 1 1.6.5.3.9 3.2.8 6.3l-.1 5.7-.7-5c-.5-3.5-.6-2.2-.4 4 .3 5.9.1 8.5-.5 7.6-.7-1-.8-.2-.4 2.5.4 3.5-.2 14-3.4 50.9-.4 5.8-.8 7.3-1.4 5.5-.4-1.4-.5.2-.2 3.5s-.7 18.6-2.1 34c-1.4 15.4-3 34.7-3.6 43-.6 8.2-1.3 16.8-1.5 19-1 10.4-1.8 22.1-1.6 22.9.1.4-1.6.6-3.8.4-2.2-.2-3.7 0-3.5.4.3.5-.5.7-1.8.5-1.5-.1-2.3.3-2.3 1.3 0 1.8-2.6 5.1-3.6 4.4-.4-.2-.5.5-.2 1.6.3 1.2 2 2.4 4.5 3.2 2.3.7 3.4 1.4 2.7 1.9-.6.4-.8 1.2-.5 1.8.4.6-.1 1.4-1.1 1.8-1.6.6-1.5.8.7 1.3 2 .5 1.4.8-3 1.5-3 .4-5.8 1.3-6.2 1.9-.4.6-.8 4.6-.8 8.8 0 7.7 0 7.8 2.5 7.8 1.7 0 2.5.6 2.6 1.7 0 1 .1 3.5.3 5.5.3 3.5.1 3.8-2.3 3.9-1.4.1-2.9.1-3.2.1-1-.1.9 9.9 2.2 11.4.6.8 2.3 1.4 3.6 1.4 1.9 0 2.4.4 1.9 1.6-.6 1.6 0 1.7 5.4.3 1.1-.3 1.5.4 1.5 2.5.1 1.7 1 3.6 2.3 4.6 1.2 1 2.2 2.3 2.2 2.9 0 1.4 1.7 1.4 2.5.1.7-1.2 4.3-.9 6.4.4 1 .6 1.2.5.7-.3-.6-.9.7-1.2 5.1-1 3.2.1 6.3.6 6.9 1 1.1.9 9.1.5 10.1-.4.3-.3 1.6-.2 2.8.3 1.5.6 2.5.5 2.7-.1.2-.7 1.8-.7 4.6-.1 2.3.6 4.2.6 4.2.2 0-1 11.1-.7 12.8.4.5.3 1.2.1 1.4-.5.3-.9 1-.9 2.7.1 1.3.7 2.1.7 1.7.2-.7-1.2 4.8-1 7.7.3 1 .4 2.9.3 4.3-.4 3-1.3 5.6-1.5 3.5-.2-1 .6-.2.9 2.5.8 2.1 0 4.5-.5 5.2-1 .8-.6 1.2-.6 1.2.1 0 1.3 27.7.9 97-1.3 33.7-1 44.5-1.7 44.8-2.5.2-.5 1.3-.5 2.7 0 1.3.5 7.4.7 13.7.5 6.2-.2 20.3-.7 31.3-1 11-.3 21.8-.8 24-1 2.2-.2 18.6-.7 36.5-1.1 17.9-.3 32.7-.7 33-.9.6-.4 94.5-1.8 124.6-1.9 20.6-.1 23.2-.3 24.8-1.9 1-.9 3.1-1.7 4.7-1.7 2.9 0 2.9 0 2.9-5.9 0-5.6.1-5.9 2.8-6.7 1.5-.4 3.2-.8 3.7-.8.6-.1 1-.6 1.1-1.1.2-2 1.6-4.5 2.3-4 .4.2.5-1.3.2-3.3-.5-3.2-1-3.7-3.6-4-3.7-.5-4.5-1.6-4.5-6.5 0-3.5.2-3.7 3.1-3.7h3.2l-.7-7.1c-.4-3.9-1-7.8-1.3-8.7-.5-1.1-.3-1.3.7-.7.8.5 1.1.4.7-.2-.4-.6-1.9-.8-3.4-.5-2.3.4-2.6.2-1.5-.9 1.4-1.6 1.6-3.3.2-2.4-1.4.9-1.8-4.8-.5-7.8.4-1 .1-2.6-.8-4.1-.9-1.3-1.2-2.7-.7-3.2s-1.3-1-4.3-1.2c-2.8-.1-5.3-.4-5.4-.6-.2-.2-.8-3.2-1.4-6.7-.5-3.5-1.6-10.5-2.4-15.4-.8-5-1.6-10.6-1.9-12.5-.2-1.9-.9-6.4-1.4-10-.6-3.6-1.3-8.5-1.7-11-.3-2.5-1-7.3-1.5-10.8-2.1-13-5.5-35.4-6.9-45.2-.6-4.1-1.4-9.5-1.8-12-.4-2.5-.8-6.4-.8-8.7 0-2.2-.3-3.9-.7-3.7-.8.5-2-8.1-2.2-15.8 0-2.9-.4-5.5-.8-5.8-.4-.3-1.2-3.5-1.7-7-3-20.7-7.1-47.1-10.6-69.5-.8-5-2.3-15.9-3.4-24.3-1.1-8.5-2.1-15.5-2.3-15.8-.3-.2-3.1-.6-6.4-.8-5.2-.3-6.1-.6-7.2-3-.7-1.4-2-2.6-2.8-2.6-1.6 0-4.6-2.4-4.4-3.5.1-.4-.2-1-.6-1.3-.4-.4-.4-.2-.1.5z"/><path d="M63.1 169.6c0 1.1.3 1.4.6.6.3-.7.2-1.6-.1-1.9-.3-.4-.6.2-.5 1.3zM56.2 250c0 1.4.2 1.9.5 1.2.2-.6.2-1.8 0-2.5-.3-.6-.5-.1-.5 1.3zM55.2 265.5c0 1.6.2 2.2.5 1.2.2-.9.2-2.3 0-3-.3-.6-.5.1-.5 1.8z"/></svg>